<svg fill="#10181D" width="800" height="800" viewBox="0 0 50.114 50.114" xmlns="http://www.w3.org/2000/svg"><g id="SVGRepo_iconCarrier"><path id="film_tape" data-name="film tape" d="M823.336 374.39c-.008-.164-.014-.328-.027-.492-.006-.108-.016-.209-.022-.308l-.009-.108a27.39 27.39 0 0 0-.138-1.327 25.148 25.148 0 0 0-7.116-14.421 25.046 25.046 0 1 0 6.809 22.86 25.626 25.626 0 0 0 .52-4.8l.006-.164v-.179c.004-.351-.008-.71-.023-1.061Zm-10.151 15.87a4.091 4.091 0 0 1-2.042-.611A8.819 8.819 0 0 1 807 382.8a3.992 3.992 0 0 1 .512-2.035c.824-1.444 2.834-2.342 5.238-2.342h.006a8.762 8.762 0 0 1 4.259 1.046 3.535 3.535 0 0 1 1.995 3.235 8.276 8.276 0 0 1-1.282 3.967c-.767 1.339-2.386 3.589-4.543 3.589Zm-14.871 7.626c-3.9-.025-5.879-1.444-5.882-4.22a9.045 9.045 0 0 1 1.827-5.135 5.351 5.351 0 0 1 4.047-2.453 5.348 5.348 0 0 1 4.044 2.453 9.08 9.08 0 0 1 1.832 5.134c-.002 2.776-1.982 4.196-5.868 4.221Zm-19.436-11.218a8.26 8.26 0 0 1-1.28-3.96 3.533 3.533 0 0 1 2-3.239 8.772 8.772 0 0 1 4.256-1.048h.006c2.4 0 4.413.9 5.246 2.346a4.023 4.023 0 0 1 .505 2.035 8.806 8.806 0 0 1-4.134 6.846 4.064 4.064 0 0 1-2.056.613c-2.152 0-3.77-2.251-4.543-3.593Zm4.539-26.024h.012a4.1 4.1 0 0 1 2.044.611 8.806 8.806 0 0 1 4.134 6.849 4.033 4.033 0 0 1-.506 2.036c-.83 1.446-2.837 2.341-5.245 2.341a8.732 8.732 0 0 1-4.26-1.047 3.53 3.53 0 0 1-2-3.235 8.269 8.269 0 0 1 1.283-3.965c.775-1.34 2.392-3.59 4.538-3.59Zm14.891-7.626c3.9.025 5.872 1.445 5.877 4.217a9.078 9.078 0 0 1-1.83 5.135 4.567 4.567 0 0 1-8.095 0 9.033 9.033 0 0 1-1.828-5.134c.003-2.773 1.98-4.193 5.876-4.218Zm14.885 7.626c2.146 0 3.768 2.251 4.543 3.592a8.255 8.255 0 0 1 1.278 3.961 3.531 3.531 0 0 1-1.993 3.237 8.788 8.788 0 0 1-4.267 1.047c-2.4 0-4.412-.895-5.242-2.342A4.014 4.014 0 0 1 807 368.1a8.816 8.816 0 0 1 4.139-6.851 4.106 4.106 0 0 1 2.042-.609Zm-14.885 20.3a5.491 5.491 0 1 1 5.488-5.49 5.495 5.495 0 0 1-5.488 5.487Z" transform="translate(-773.251 -350.395)"/></g></svg>