<!DOCTYPE svg PUBLIC "-//W3C//DTD SVG 1.1//EN" "http://www.w3.org/Graphics/SVG/1.1/DTD/svg11.dtd">
<!-- Uploaded to: SVG Repo, www.svgrepo.com, Transformed by: SVG Repo Mixer Tools -->
<svg fill="#10181D" width="800px" height="800px" viewBox="0 0 19.00 19.00" xmlns="http://www.w3.org/2000/svg" class="cf-icon-svg" stroke="#10181D" transform="matrix(1, 0, 0, 1, 0, 0)" stroke-width="1.0829999999999997">
<g id="SVGRepo_bgCarrier" stroke-width="0"/>
<g id="SVGRepo_tracerCarrier" stroke-linecap="round" stroke-linejoin="round" stroke="#CCCCCC" stroke-width="0.19"/>
<g id="SVGRepo_iconCarrier">
<path d="M16.5 7.29v6.659a.301.301 0 0 1-.448.298L11.606 12.4v1.525a1.135 1.135 0 0 1-1.131 1.131H1.63A1.135 1.135 0 0 1 .5 13.925v-6.61a1.135 1.135 0 0 1 1.131-1.132h8.844a1.135 1.135 0 0 1 1.131 1.132v1.524l4.446-1.847a.301.301 0 0 1 .448.299z"/>
</g>
</svg>